<!--?xml version="1.0" encoding="UTF-8"?-->
<!--Generator: Apple Native CoreSVG 175.5-->

<svg version="1.1" xmlns="http://www.w3.org/2000/svg" xmlns:xlink="http://www.w3.org/1999/xlink" width="144" height="144">
 <g>
  
  <path d="M32.1 74.9123Q32.1 81.1056 33.2484 87.5245Q34.3969 93.9433 36.5502 100.0547Q38.7035 106.1662 41.6977 111.4569Q42.4359 112.7694 43.7689 113.118Q45.1019 113.4666 46.4965 112.6875Q47.809 111.9903 48.1166 110.6572Q48.4242 109.3241 47.6449 107.8886Q43.5434 100.3828 41.308 91.79Q39.0727 83.1972 39.0727 74.9123Q39.0727 66.3809 41.5541 59.4082Q44.0356 52.4356 48.6293 47.4111Q53.2231 42.3867 59.6215 39.6797Q66.0199 36.9727 73.8539 36.9727Q81.647 36.9727 88.0453 39.6797Q94.444 42.3867 99.0581 47.4111Q103.6722 52.4356 106.1536 59.4082Q108.6353 66.3809 108.6353 74.9123Q108.6353 83.1972 106.3791 91.79Q104.1233 100.3828 100.022 107.8886Q99.2425 109.3241 99.5503 110.6572Q99.8578 111.9903 101.1703 112.6875Q102.5647 113.4666 103.8977 113.118Q105.2308 112.7694 105.9692 111.4569Q108.9634 106.1662 111.1373 100.0547Q113.3108 93.9433 114.4595 87.5245Q115.6078 81.1056 115.6078 74.9123Q115.6078 64.7813 112.6342 56.5166Q109.6606 48.2519 104.1439 42.3252Q98.6272 36.3984 90.937 33.1992Q83.2463 30 73.8539 30Q64.4203 30 56.7299 33.1992Q49.0394 36.3984 43.5434 42.3252Q38.0473 48.2519 35.0736 56.5166Q32.1 64.7813 32.1 74.9123ZM44.9379 110.4317Q45.9633 113.9588 48.7318 115.4767Q51.5004 116.9942 55.0688 115.969Q58.6371 114.9433 60.1547 112.1339Q61.6723 109.3241 60.6059 105.797L54.7406 85.781Q53.7152 82.2539 50.9467 80.757Q48.1781 79.2597 44.6098 80.2442Q41.0414 81.2694 39.5238 84.0792Q38.0063 86.8886 39.0727 90.4569ZM102.7289 110.4317L108.5942 90.4569Q109.6606 86.8478 108.1431 84.0586Q106.6252 81.2694 103.0569 80.2442Q99.4886 79.2597 96.7199 80.757Q93.9517 82.2539 92.9261 85.781L87.0608 105.797Q85.9944 109.3653 87.5324 112.1541Q89.0709 114.9433 92.5981 115.969Q96.1664 116.9942 98.935 115.4767Q101.7037 113.9588 102.7289 110.4317Z" fill="#ffffff"></path>
 </g>
</svg>
